{
    "asset" : {
        "generator" : "Khronos glTF Blender I/O v1.5.17",
        "version" : "2.0"
    },
    "scene" : 0,
    "scenes" : [
        {
            "name" : "Scene",
            "nodes" : [
                0,
                1,
                2,
                3,
                4
            ]
        }
    ],
    "nodes" : [
        {
            "mesh" : 0,
            "name" : "Prop_Misc_Ceiling_Fan_5",
            "rotation" : [
                0.7071068286895752,
                0,
                0,
                0.7071067094802856
            ],
            "translation" : [
                -3.8653922080993652,
                12.219940185546875,
                16.970237731933594
            ]
        },
        {
            "mesh" : 1,
            "name" : "Prop_Misc_Ceiling_Light_3",
            "rotation" : [
                0.7071068286895752,
                0,
                0,
                0.7071067094802856
            ],
            "translation" : [
                -15.204853057861328,
                12.178274154663086,
                16.57712745666504
            ]
        },
        {
            "mesh" : 2,
            "name" : "Prop_Misc_Ceiling_Light_Large",
            "rotation" : [
                0.7071068286895752,
                0,
                0,
                0.7071067094802856
            ],
            "translation" : [
                -8.354865074157715,
                12.1782808303833,
                7.000931262969971
            ]
        },
        {
            "mesh" : 3,
            "name" : "Prop_Misc_Ceiling_Light_Large.001",
            "rotation" : [
                0.7071068286895752,
                0,
                0,
                0.7071067094802856
            ],
            "translation" : [
                -21.569412231445312,
                12.1782808303833,
                7.000931262969971
            ]
        },
        {
            "mesh" : 4,
            "name" : "Atap",
            "rotation" : [
                0,
                0,
                0,
                -1
            ],
            "scale" : [
                13.483803749084473,
                15.594922065734863,
                9.898168563842773
            ],
            "translation" : [
                -13.093273162841797,
                12.01994514465332,
                10.337522506713867
            ]
        }
    ],
    "materials" : [
        {
            "doubleSided" : true,
            "name" : "Lampu",
            "pbrMetallicRoughness" : {}
        },
        {
            "doubleSided" : true,
            "name" : "Atap",
            "pbrMetallicRoughness" : {}
        }
    ],
    "meshes" : [
        {
            "name" : "Prop_Misc_Ceiling_Fan_5",
            "primitives" : [
                {
                    "attributes" : {
                        "POSITION" : 0,
                        "NORMAL" : 1,
                        "TEXCOORD_0" : 2
                    },
                    "indices" : 3,
                    "material" : 0
                }
            ]
        },
        {
            "name" : "Prop_Misc_Ceiling_Light_3",
            "primitives" : [
                {
                    "attributes" : {
                        "POSITION" : 4,
                        "NORMAL" : 5,
                        "TEXCOORD_0" : 6
                    },
                    "indices" : 7,
                    "material" : 0
                }
            ]
        },
        {
            "name" : "Prop_Misc_Ceiling_Light_Large",
            "primitives" : [
                {
                    "attributes" : {
                        "POSITION" : 8,
                        "NORMAL" : 9,
                        "TEXCOORD_0" : 10
                    },
                    "indices" : 11,
                    "material" : 0
                }
            ]
        },
        {
            "name" : "Prop_Misc_Ceiling_Light_Large.001",
            "primitives" : [
                {
                    "attributes" : {
                        "POSITION" : 12,
                        "NORMAL" : 13,
                        "TEXCOORD_0" : 14
                    },
                    "indices" : 11,
                    "material" : 0
                }
            ]
        },
        {
            "name" : "Plane.005",
            "primitives" : [
                {
                    "attributes" : {
                        "POSITION" : 15,
                        "NORMAL" : 16,
                        "TEXCOORD_0" : 17
                    },
                    "indices" : 18,
                    "material" : 1
                }
            ]
        }
    ],
    "accessors" : [
        {
            "bufferView" : 0,
            "componentType" : 5126,
            "count" : 3533,
            "max" : [
                0.7464329600334167,
                0.8499649167060852,
                0.6386251449584961
            ],
            "min" : [
                -0.875,
                -0.8490571975708008,
                0.20000000298023224
            ],
            "type" : "VEC3"
        },
        {
            "bufferView" : 1,
            "componentType" : 5126,
            "count" : 3533,
            "type" : "VEC3"
        },
        {
            "bufferView" : 2,
            "componentType" : 5126,
            "count" : 3533,
            "type" : "VEC2"
        },
        {
            "bufferView" : 3,
            "componentType" : 5123,
            "count" : 6180,
            "type" : "SCALAR"
        },
        {
            "bufferView" : 4,
            "componentType" : 5126,
            "count" : 1913,
            "max" : [
                0.33830365538597107,
                0.317300409078598,
                0.5224406719207764
            ],
            "min" : [
                -0.2515384554862976,
                -0.317300409078598,
                0.15833333134651184
            ],
            "type" : "VEC3"
        },
        {
            "bufferView" : 5,
            "componentType" : 5126,
            "count" : 1913,
            "type" : "VEC3"
        },
        {
            "bufferView" : 6,
            "componentType" : 5126,
            "count" : 1913,
            "type" : "VEC2"
        },
        {
            "bufferView" : 7,
            "componentType" : 5123,
            "count" : 3240,
            "type" : "SCALAR"
        },
        {
            "bufferView" : 8,
            "componentType" : 5126,
            "count" : 507,
            "max" : [
                0.25,
                0.25,
                0.5583333373069763
            ],
            "min" : [
                -0.25,
                -0.25,
                0.15833333134651184
            ],
            "type" : "VEC3"
        },
        {
            "bufferView" : 9,
            "componentType" : 5126,
            "count" : 507,
            "type" : "VEC3"
        },
        {
            "bufferView" : 10,
            "componentType" : 5126,
            "count" : 507,
            "type" : "VEC2"
        },
        {
            "bufferView" : 11,
            "componentType" : 5123,
            "count" : 792,
            "type" : "SCALAR"
        },
        {
            "bufferView" : 12,
            "componentType" : 5126,
            "count" : 507,
            "max" : [
                0.25,
                0.25,
                0.5583333373069763
            ],
            "min" : [
                -0.25,
                -0.25,
                0.15833333134651184
            ],
            "type" : "VEC3"
        },
        {
            "bufferView" : 13,
            "componentType" : 5126,
            "count" : 507,
            "type" : "VEC3"
        },
        {
            "bufferView" : 14,
            "componentType" : 5126,
            "count" : 507,
            "type" : "VEC2"
        },
        {
            "bufferView" : 15,
            "componentType" : 5126,
            "count" : 4,
            "max" : [
                1,
                0,
                1
            ],
            "min" : [
                -1,
                0,
                -1
            ],
            "type" : "VEC3"
        },
        {
            "bufferView" : 16,
            "componentType" : 5126,
            "count" : 4,
            "type" : "VEC3"
        },
        {
            "bufferView" : 17,
            "componentType" : 5126,
            "count" : 4,
            "type" : "VEC2"
        },
        {
            "bufferView" : 18,
            "componentType" : 5123,
            "count" : 6,
            "type" : "SCALAR"
        }
    ],
    "bufferViews" : [
        {
            "buffer" : 0,
            "byteLength" : 42396,
            "byteOffset" : 0
        },
        {
            "buffer" : 0,
            "byteLength" : 42396,
            "byteOffset" : 42396
        },
        {
            "buffer" : 0,
            "byteLength" : 28264,
            "byteOffset" : 84792
        },
        {
            "buffer" : 0,
            "byteLength" : 12360,
            "byteOffset" : 113056
        },
        {
            "buffer" : 0,
            "byteLength" : 22956,
            "byteOffset" : 125416
        },
        {
            "buffer" : 0,
            "byteLength" : 22956,
            "byteOffset" : 148372
        },
        {
            "buffer" : 0,
            "byteLength" : 15304,
            "byteOffset" : 171328
        },
        {
            "buffer" : 0,
            "byteLength" : 6480,
            "byteOffset" : 186632
        },
        {
            "buffer" : 0,
            "byteLength" : 6084,
            "byteOffset" : 193112
        },
        {
            "buffer" : 0,
            "byteLength" : 6084,
            "byteOffset" : 199196
        },
        {
            "buffer" : 0,
            "byteLength" : 4056,
            "byteOffset" : 205280
        },
        {
            "buffer" : 0,
            "byteLength" : 1584,
            "byteOffset" : 209336
        },
        {
            "buffer" : 0,
            "byteLength" : 6084,
            "byteOffset" : 210920
        },
        {
            "buffer" : 0,
            "byteLength" : 6084,
            "byteOffset" : 217004
        },
        {
            "buffer" : 0,
            "byteLength" : 4056,
            "byteOffset" : 223088
        },
        {
            "buffer" : 0,
            "byteLength" : 48,
            "byteOffset" : 227144
        },
        {
            "buffer" : 0,
            "byteLength" : 48,
            "byteOffset" : 227192
        },
        {
            "buffer" : 0,
            "byteLength" : 32,
            "byteOffset" : 227240
        },
        {
            "buffer" : 0,
            "byteLength" : 12,
            "byteOffset" : 227272
        }
    ],
    "buffers" : [
        {
            "byteLength" : 227284,
            "uri" : "data:application/octet-stream;base64,"
        }
    ]
}
